<svg width="399" height="391" viewBox="0 0 399 391" fill="none" xmlns="http://www.w3.org/2000/svg">
<g clip-path="url(#clip0_2:855)">
<path d="M84.2458 127.891C85.5432 127.115 86.8407 126.511 88.3111 126.166L89.176 122.199L95.9226 122.113L96.8741 126.08C98.258 126.425 99.6419 126.942 100.939 127.719L104.313 125.476L109.156 130.133L107.08 133.583C107.859 134.876 108.464 136.17 108.81 137.636L112.789 138.498L112.876 145.225L108.897 146.173C108.551 147.553 108.032 148.933 107.253 150.226L109.502 153.59L104.832 158.419L101.372 156.349C100.074 157.125 98.7769 157.729 97.3065 158.074L96.4416 162.041L89.695 162.127L88.7435 158.16C87.3596 157.815 85.9757 157.298 84.6783 156.522L81.305 158.764L76.4613 154.107L78.5372 150.658C77.7587 149.364 77.1533 148.071 76.8073 146.605L72.8285 145.742L72.742 139.016L76.7208 138.067C77.0668 136.687 77.5857 135.307 78.3642 134.014L76.1153 130.651L80.786 125.821L84.2458 127.891ZM87.8786 136.86C85.1108 139.706 85.1973 144.276 88.0516 147.036C90.9059 149.795 95.4901 149.709 98.258 146.863C101.026 144.017 100.939 139.447 98.085 136.687C95.2307 133.928 90.6464 134.014 87.8786 136.86Z" fill="#E0E0E0"/>
<path d="M87.8786 136.859C87.8786 136.859 88.2246 136.341 89.2625 135.651C90.214 135.048 91.8574 134.358 94.0197 134.53C95.0577 134.616 96.1821 134.961 97.22 135.651C98.258 136.341 99.2094 137.29 99.8149 138.583C100.161 139.187 100.334 139.877 100.507 140.567C100.68 141.257 100.68 142.033 100.507 142.809C100.334 144.275 99.6419 145.827 98.5175 146.948C97.393 148.069 95.9226 148.846 94.4522 149.104C93.6737 149.277 92.9818 149.277 92.2033 149.104C91.5114 149.018 90.8194 148.846 90.1275 148.501C88.83 147.983 87.7921 147.035 87.1002 146C86.4082 144.965 85.9757 143.844 85.8892 142.809C85.6298 140.739 86.2352 139.015 86.8407 138.066C87.3596 137.29 87.8786 136.859 87.8786 136.859C87.8786 136.859 87.4461 137.29 86.9272 138.325C86.4082 139.273 85.8027 140.912 86.1487 142.981C86.3217 143.93 86.6677 145.051 87.3596 146C88.0516 146.948 89.003 147.811 90.214 148.328C90.8194 148.587 91.5114 148.759 92.2033 148.846C92.8953 148.932 93.5873 148.932 94.2792 148.759C95.6631 148.501 97.047 147.811 98.1715 146.69C99.2094 145.569 99.9014 144.189 100.074 142.723C100.161 142.033 100.161 141.343 100.074 140.653C99.9879 139.963 99.7284 139.359 99.4689 138.756C98.9499 137.549 97.9985 136.6 97.047 135.996C96.0956 135.306 94.9712 134.961 94.0197 134.875C92.0304 134.616 90.387 135.22 89.4355 135.824C88.3111 136.427 87.8786 136.945 87.8786 136.859Z" fill="#E0E0E0"/>
<path d="M84.2458 127.89C84.2458 127.89 84.1593 127.89 83.9863 127.804C83.8134 127.717 83.6404 127.545 83.2944 127.459C82.6889 127.114 81.824 126.596 80.6995 125.906H80.786C79.5751 127.114 78.0182 128.752 76.1153 130.736V130.563C76.8073 131.598 77.5857 132.719 78.3642 133.927V134.013V134.099C77.6722 135.306 77.1533 136.686 76.8073 138.152V138.238H76.7208C75.5099 138.583 74.1259 138.842 72.742 139.187L72.8285 139.015C72.8285 141.17 72.915 143.413 73.0015 145.741L72.8285 145.569C74.0395 145.827 75.4234 146.086 76.8073 146.431H76.8938V146.517C77.2398 147.811 77.8452 149.191 78.6237 150.484L78.7102 150.57L78.6237 150.657C77.9317 151.691 77.2398 152.899 76.5478 154.106V153.847C78.1047 155.313 79.7481 156.866 81.3915 158.504H81.132C82.17 157.814 83.3809 157.038 84.5053 156.262L84.5918 156.176L84.6783 156.262C85.8892 156.952 87.2731 157.469 88.7436 157.814H88.83V157.901C89.176 159.108 89.4355 160.488 89.7815 161.867L89.6085 161.695C91.7709 161.695 94.0197 161.609 96.3551 161.609L96.1821 161.781C96.4416 160.488 96.7011 159.194 97.047 157.814V157.728H97.1335C98.431 157.383 99.8149 156.779 101.112 156.003L101.199 155.917L101.285 156.003C102.496 156.693 103.621 157.383 104.745 158.073H104.486C106.042 156.435 107.599 154.796 109.156 153.244V153.502C108.378 152.381 107.686 151.26 106.907 150.139L106.821 150.053L106.907 149.967C107.599 148.673 108.118 147.293 108.464 145.914V145.827H108.551C109.848 145.482 111.232 145.137 112.53 144.879L112.357 145.051C112.357 142.723 112.27 140.481 112.27 138.325L112.443 138.497C111.059 138.238 109.762 137.98 108.464 137.635H108.378V137.549C107.945 136.082 107.426 134.789 106.648 133.582L106.561 133.495L106.648 133.409C107.34 132.202 108.118 131.081 108.724 129.96V130.132C106.994 128.494 105.437 126.941 103.88 125.475H104.053C102.842 126.251 101.718 127.028 100.68 127.717L100.593 127.804L100.507 127.717C99.1229 126.941 97.8255 126.424 96.4416 126.079H96.3551V125.993C96.0091 124.527 95.6631 123.233 95.4036 122.026L95.4901 122.112C92.8953 122.112 90.6464 122.198 88.7436 122.198L88.83 122.112C88.4841 123.664 88.2246 125.044 87.9651 126.079C86.4947 126.51 85.5432 126.941 84.8513 127.286C84.5053 127.459 84.3323 127.545 84.1593 127.631C84.3323 127.89 84.2458 127.89 84.2458 127.89C84.2458 127.89 84.3323 127.804 84.5053 127.717C84.6783 127.631 84.8513 127.459 85.1973 127.286C85.8027 126.941 86.8407 126.424 88.3111 126.079L88.2246 126.165C88.4841 125.044 88.7436 123.751 89.003 122.198V122.112H89.0895C90.9924 122.112 93.2413 122.026 95.8361 121.94H95.9226V122.026C96.2686 123.233 96.5281 124.527 96.8741 125.993V125.906C98.258 126.251 99.6419 126.769 101.026 127.545H100.853C101.977 126.855 103.102 126.079 104.226 125.303L104.313 125.217L104.399 125.303C105.956 126.769 107.513 128.321 109.243 129.96L109.329 130.046L109.243 130.132C108.551 131.253 107.859 132.374 107.167 133.582V133.409C107.945 134.616 108.551 135.996 108.983 137.462L108.81 137.29C110.108 137.549 111.405 137.807 112.789 138.152H112.962V138.325C112.962 140.481 113.049 142.723 113.049 145.051V145.224H112.876C111.578 145.569 110.281 145.827 108.897 146.172L109.07 146C108.724 147.466 108.205 148.846 107.426 150.139V149.967C108.205 151.088 108.897 152.209 109.675 153.33L109.762 153.502L109.675 153.589C108.118 155.141 106.561 156.779 105.005 158.418L104.918 158.504L104.745 158.418C103.621 157.728 102.41 157.038 101.285 156.348H101.458C100.161 157.124 98.7769 157.728 97.393 158.073L97.566 157.901C97.3065 159.28 96.9605 160.66 96.7011 161.867V162.04H96.5281C94.1927 162.04 91.9439 162.126 89.7815 162.126H89.6085V161.954C89.2625 160.574 88.9165 159.28 88.6571 157.987L88.83 158.159C87.3596 157.814 85.8892 157.211 84.6783 156.521H84.8513C83.6404 157.297 82.5159 158.073 81.478 158.763L81.3915 158.849L81.305 158.763C79.6616 157.124 78.0182 155.572 76.4613 154.106L76.3748 154.02L76.4613 153.934C77.2398 152.726 77.9317 151.519 78.5372 150.484V150.657C77.7587 149.363 77.1533 147.897 76.8073 146.603L76.9803 146.69C75.5964 146.431 74.2124 146.086 73.0015 145.827H72.915V145.655C72.915 143.326 72.8285 141.084 72.8285 138.928V138.842H72.915C74.2989 138.497 75.6829 138.152 76.8938 137.893L76.8073 137.98C77.1533 136.427 77.7587 135.048 78.4507 133.84V133.927C77.6722 132.719 76.8938 131.512 76.2018 130.477L76.1153 130.391L76.2018 130.305C78.1047 128.321 79.7481 126.683 80.8725 125.475H80.959C82.0835 126.165 82.9484 126.683 83.5539 127.028C83.8134 127.2 84.0728 127.373 84.2458 127.459C84.1593 127.89 84.2458 127.89 84.2458 127.89Z" fill="#E0E0E0"/>
<path d="M282.232 175.665C283.011 175.234 283.789 174.889 284.654 174.631L285.173 172.216L289.238 172.13L289.844 174.458C290.709 174.631 291.487 174.976 292.266 175.407L294.341 174.113L297.282 176.873L295.985 178.942C296.417 179.719 296.763 180.495 297.023 181.357L299.445 181.874L299.531 185.928L297.196 186.531C297.023 187.394 296.677 188.17 296.244 188.946L297.542 191.016L294.774 193.948L292.698 192.654C291.92 193.085 291.141 193.43 290.276 193.689L289.757 196.104L285.692 196.19L285.086 193.862C284.222 193.689 283.443 193.344 282.665 192.913L280.589 194.206L277.648 191.447L278.945 189.377C278.513 188.601 278.167 187.825 277.907 186.963L275.486 186.445L275.399 182.392L277.734 181.788C277.907 180.926 278.253 180.15 278.686 179.374L277.388 177.304L280.156 174.372L282.232 175.665ZM284.395 181.012C282.751 182.737 282.751 185.496 284.481 187.135C286.211 188.773 288.979 188.773 290.622 187.049C292.266 185.324 292.266 182.564 290.536 180.926C288.806 179.201 286.038 179.287 284.395 181.012Z" fill="#F5F5F5"/>
<path d="M284.395 181.012C284.395 181.012 284.654 180.667 285.173 180.322C285.779 179.977 286.73 179.546 288.027 179.632C288.633 179.719 289.325 179.891 289.93 180.322C290.536 180.753 291.141 181.271 291.487 182.047C291.66 182.392 291.833 182.823 291.92 183.254C292.006 183.686 292.006 184.117 291.92 184.548C291.833 185.41 291.401 186.359 290.709 187.049C290.017 187.739 289.152 188.17 288.287 188.342C287.854 188.429 287.422 188.429 286.989 188.342C286.557 188.256 286.124 188.17 285.778 187.997C285 187.652 284.395 187.135 283.962 186.531C283.53 185.928 283.27 185.238 283.184 184.634C283.011 183.341 283.357 182.392 283.789 181.788C284.135 181.271 284.395 181.012 284.395 181.012C284.395 181.012 284.135 181.271 283.789 181.875C283.443 182.478 283.097 183.427 283.27 184.634C283.357 185.238 283.616 185.841 284.049 186.445C284.481 187.049 285.087 187.566 285.778 187.825C286.124 187.997 286.557 188.084 286.903 188.17C287.335 188.256 287.768 188.256 288.2 188.17C289.065 187.997 289.844 187.566 290.536 186.963C291.141 186.273 291.574 185.496 291.66 184.634C291.747 184.203 291.747 183.772 291.66 183.341C291.574 182.909 291.487 182.564 291.314 182.219C290.968 181.53 290.449 180.926 289.844 180.581C289.238 180.15 288.633 179.977 288.027 179.891C286.816 179.719 285.865 180.15 285.26 180.495C284.654 180.753 284.395 181.012 284.395 181.012Z" fill="#F5F5F5"/>
<path d="M282.232 175.665C282.232 175.665 282.146 175.665 282.059 175.579C281.973 175.493 281.8 175.407 281.627 175.32C281.281 175.148 280.762 174.803 280.07 174.372H280.156C279.464 175.148 278.513 176.097 277.388 177.304V177.218C277.821 177.821 278.253 178.511 278.772 179.287C278.34 179.977 278.08 180.84 277.821 181.702V181.788H277.734C276.956 181.961 276.178 182.133 275.399 182.392L275.486 182.306C275.486 183.599 275.572 184.893 275.572 186.359L275.486 186.273C276.264 186.445 277.042 186.618 277.907 186.79H277.994V186.876C278.253 187.652 278.599 188.515 279.032 189.291V189.377V189.463C278.599 190.067 278.167 190.843 277.734 191.533V191.361C278.686 192.223 279.637 193.172 280.675 194.12H280.502C281.108 193.689 281.8 193.258 282.578 192.827H282.665H282.751C283.443 193.258 284.308 193.603 285.173 193.775H285.259V193.861C285.432 194.638 285.605 195.414 285.865 196.19L285.778 196.104C287.076 196.104 288.46 196.017 289.844 196.017L289.757 196.104C289.93 195.328 290.103 194.551 290.276 193.689V193.603H290.363C291.141 193.344 292.006 192.999 292.785 192.568H292.871H292.958C293.649 192.999 294.341 193.43 295.033 193.861H294.86C295.812 192.913 296.763 191.878 297.628 190.929V191.102C297.196 190.412 296.763 189.722 296.331 189.032V188.946V188.86C296.763 188.084 297.109 187.307 297.282 186.445V186.359H297.369C298.147 186.186 298.926 186.014 299.704 185.755L299.618 185.841C299.618 184.462 299.531 183.168 299.531 181.788L299.618 181.874C298.839 181.702 297.974 181.53 297.196 181.357H297.109V181.271C296.85 180.408 296.504 179.632 296.071 178.856V178.77V178.684C296.504 177.994 296.936 177.304 297.369 176.614V176.7C296.331 175.752 295.379 174.803 294.428 173.941H294.514C293.822 174.372 293.131 174.889 292.439 175.234H292.352H292.266C291.487 174.803 290.622 174.458 289.844 174.286H289.757V174.199C289.584 173.337 289.325 172.561 289.152 171.871L289.238 171.957C287.681 171.957 286.384 171.957 285.173 172.043L285.259 171.957C285.086 172.906 284.914 173.682 284.741 174.372C283.876 174.631 283.27 174.889 282.924 175.062C282.751 175.148 282.578 175.234 282.492 175.32C282.319 175.665 282.232 175.665 282.232 175.665C282.232 175.665 282.319 175.665 282.405 175.579C282.492 175.493 282.665 175.407 282.838 175.32C283.184 175.148 283.789 174.803 284.654 174.544C284.827 173.854 284.914 173.078 285.173 172.13V172.043H285.259C286.384 172.043 287.768 171.957 289.325 171.957H289.411V172.043C289.584 172.733 289.757 173.509 290.017 174.372L289.93 174.286C290.709 174.458 291.574 174.803 292.439 175.234H292.352C292.958 174.803 293.649 174.372 294.428 173.854H294.514L294.601 173.941C295.552 174.803 296.504 175.752 297.542 176.7L297.628 176.786V176.873C297.196 177.563 296.763 178.253 296.331 178.942V178.856C296.763 179.632 297.109 180.408 297.369 181.271L297.282 181.185C298.061 181.357 298.839 181.53 299.704 181.702H299.791V181.788C299.791 183.082 299.877 184.462 299.877 185.841V185.928H299.791C299.012 186.1 298.234 186.273 297.455 186.531L297.542 186.445C297.369 187.307 297.023 188.17 296.59 188.946V188.86C297.023 189.55 297.455 190.24 297.888 190.929L297.974 191.016L297.888 191.102C296.936 192.051 296.071 192.999 295.12 194.034L295.033 194.12L294.947 194.034C294.255 193.603 293.563 193.172 292.871 192.74H292.958C292.179 193.172 291.314 193.603 290.536 193.775L290.622 193.689C290.449 194.465 290.276 195.328 290.103 196.104V196.19H290.017C288.633 196.19 287.249 196.276 285.951 196.276H285.865V196.19C285.692 195.414 285.432 194.551 285.259 193.861L285.346 193.948C284.481 193.689 283.616 193.344 282.838 192.999H282.924C282.232 193.43 281.54 193.948 280.848 194.293L280.762 194.379L280.675 194.293C279.637 193.344 278.686 192.395 277.734 191.533L277.648 191.447L277.734 191.361C278.167 190.671 278.599 189.895 279.032 189.291V189.377C278.513 188.601 278.167 187.739 277.994 186.963L278.08 187.049C277.215 186.876 276.437 186.704 275.659 186.531H275.572V186.445C275.572 185.065 275.572 183.685 275.486 182.392V182.306H275.572C276.437 182.133 277.215 181.874 277.907 181.702L277.821 181.788C278.08 180.84 278.426 180.064 278.772 179.374V179.46C278.253 178.684 277.821 178.08 277.475 177.39C278.599 176.183 279.551 175.234 280.329 174.544C281.021 174.976 281.54 175.234 281.886 175.493C282.059 175.579 282.146 175.665 282.319 175.752C282.232 175.579 282.232 175.665 282.232 175.665Z" fill="#F5F5F5"/>
<path d="M313.976 27.8556C314.927 27.252 315.965 26.8208 317.09 26.4758L317.695 23.3713L322.885 23.2851L323.663 26.3034C324.788 26.5621 325.825 26.9933 326.777 27.5107L329.372 25.7859L333.091 29.4079L331.448 32.0813C332.053 33.0299 332.486 34.0647 332.832 35.1858L335.945 35.7895L336.032 40.9637L333.005 41.7398C332.745 42.8609 332.313 43.8958 331.794 44.8444L333.524 47.4315L329.891 51.1397L327.209 49.5012C326.258 50.1049 325.22 50.5361 324.096 50.881L323.49 53.9855L318.3 54.0718L317.522 51.0535C316.398 50.7948 315.36 50.3636 314.408 49.8462L311.813 51.5709L308.094 47.9489L309.737 45.2756C309.132 44.327 308.7 43.2921 308.354 42.171L305.24 41.5674L305.153 36.3931L308.181 35.617C308.44 34.4959 308.873 33.4611 309.391 32.5125L307.662 29.9253L311.294 26.2171L313.976 27.8556ZM316.744 34.7546C314.581 36.9968 314.668 40.4463 316.917 42.6022C319.165 44.7582 322.625 44.6719 324.788 42.4297C326.95 40.1876 326.863 36.7381 324.615 34.5821C322.366 32.5125 318.906 32.5987 316.744 34.7546Z" fill="#F5F5F5"/>
<path d="M316.744 34.7536C316.744 34.7536 317.003 34.3225 317.781 33.805C318.473 33.2876 319.771 32.7702 321.414 32.9427C322.193 33.0289 323.058 33.2876 323.923 33.805C324.701 34.3225 325.48 35.0986 325.912 36.0472C326.171 36.5646 326.344 37.082 326.431 37.5995C326.517 38.1169 326.517 38.7206 326.431 39.3242C326.258 40.4453 325.739 41.6526 324.874 42.515C324.009 43.3774 322.885 43.981 321.674 44.1535C321.068 44.2397 320.549 44.2397 319.944 44.1535C319.425 44.0673 318.819 43.8948 318.387 43.7223C317.436 43.2911 316.657 42.6012 316.052 41.8251C315.533 41.049 315.187 40.1866 315.1 39.4105C314.841 37.7719 315.36 36.4784 315.792 35.7885C316.311 35.0986 316.744 34.7536 316.744 34.7536C316.744 34.7536 316.398 35.0986 315.965 35.8747C315.533 36.6509 315.1 37.8582 315.36 39.4105C315.446 40.1866 315.792 40.9627 316.311 41.7389C316.83 42.4288 317.608 43.1187 318.56 43.5498C318.992 43.7223 319.511 43.8948 320.03 43.981C320.549 44.0673 321.068 44.0673 321.674 43.981C322.798 43.8086 323.836 43.2049 324.615 42.4288C325.393 41.5664 325.912 40.5315 326.085 39.4105C326.171 38.893 326.171 38.2894 326.085 37.7719C325.998 37.2545 325.825 36.7371 325.653 36.3059C325.22 35.3573 324.528 34.6674 323.75 34.15C322.971 33.6326 322.193 33.3738 321.414 33.2876C319.857 33.1151 318.646 33.5463 317.868 34.0637C317.09 34.4087 316.744 34.7536 316.744 34.7536Z" fill="#F5F5F5"/>
<path d="M313.977 27.8547C313.977 27.8547 313.89 27.8547 313.804 27.7684C313.717 27.6822 313.544 27.5959 313.285 27.5097C312.852 27.251 312.16 26.8198 311.295 26.3024H311.382C310.43 27.251 309.219 28.5446 307.836 30.0106V29.9243C308.355 30.7005 308.96 31.5629 309.565 32.5115V32.5977V32.6839C309.046 33.6326 308.614 34.6674 308.355 35.7885V35.8747H308.268C307.317 36.1334 306.279 36.3921 305.241 36.6509L305.327 36.5646C305.327 38.2031 305.414 39.9279 305.414 41.7389L305.327 41.6526C306.279 41.8251 307.317 42.0838 308.441 42.2563H308.528V42.3425C308.787 43.3774 309.219 44.4122 309.911 45.4471L309.998 45.5333L309.911 45.6195C309.392 46.4819 308.873 47.3443 308.268 48.2929V48.1204C309.479 49.2415 310.69 50.4488 311.987 51.7424H311.814C312.593 51.225 313.544 50.6213 314.409 50.0176L314.496 49.9314L314.582 50.0176C315.534 50.5351 316.572 50.9663 317.696 51.225H317.782V51.3112C318.042 52.2598 318.301 53.2947 318.561 54.3295L318.388 54.2433C320.031 54.2433 321.761 54.157 323.578 54.157L323.405 54.2433C323.578 53.2947 323.837 52.2598 324.01 51.1387V51.0525H324.097C325.135 50.7938 326.172 50.2764 327.124 49.7589L327.21 49.6727L327.297 49.7589C328.162 50.2764 329.113 50.88 329.978 51.3974H329.805C331.016 50.1039 332.227 48.8966 333.438 47.6892V47.8617C332.833 46.9993 332.314 46.137 331.708 45.2746L331.622 45.1884L331.708 45.1021C332.227 44.1535 332.66 43.0324 332.919 41.9976V41.9113H333.006C334.043 41.6526 335.081 41.3939 336.033 41.1352L335.946 41.3077C335.946 39.4967 335.86 37.7719 335.86 36.1334L335.946 36.3059C334.908 36.0472 333.87 35.8747 332.833 35.7022H332.746V35.616C332.4 34.4949 331.968 33.4601 331.449 32.5115L331.362 32.4252L331.449 32.339C331.968 31.3904 332.573 30.528 333.092 29.6656V29.8381C331.795 28.5445 330.497 27.3372 329.373 26.2161H329.546C328.594 26.8198 327.729 27.4235 326.951 27.9409H326.864H326.778C325.74 27.3372 324.702 26.9923 323.664 26.7336H323.578V26.6473C323.318 25.5262 323.059 24.5776 322.799 23.629L322.886 23.7153C320.896 23.7153 319.166 23.8015 317.696 23.8015L317.782 23.7153C317.523 24.9226 317.263 25.9574 317.09 26.8198C315.966 27.1648 315.188 27.5097 314.755 27.7684C314.496 27.8547 314.323 28.0271 314.236 28.0271C313.977 27.8547 313.977 27.8547 313.977 27.8547C313.977 27.8547 314.063 27.7684 314.15 27.7684C314.236 27.6822 314.409 27.5959 314.669 27.4235C315.188 27.1648 315.966 26.8198 317.004 26.4749C317.177 25.6125 317.35 24.6639 317.609 23.3703V23.2841H317.696C319.166 23.2841 320.896 23.1978 322.886 23.1978H322.972V23.2841C323.232 24.2327 323.491 25.1813 323.751 26.3024L323.664 26.2161C324.702 26.4749 325.74 26.906 326.864 27.4235H326.778C327.643 26.906 328.508 26.3024 329.373 25.6987L329.459 25.6125L329.546 25.8712C330.757 26.9923 331.968 28.1996 333.265 29.4932L333.351 29.5794L333.265 29.6656C332.746 30.528 332.227 31.3904 331.622 32.339V32.1665C332.227 33.1151 332.66 34.15 333.006 35.2711L332.919 35.1848C333.957 35.3573 334.995 35.616 336.033 35.7885H336.119V35.8747C336.119 37.5995 336.206 39.3242 336.206 41.049V41.1352H336.119C335.081 41.3939 334.13 41.6526 333.092 41.9113L333.179 41.8251C332.919 42.9462 332.487 43.981 331.968 45.0159V44.8434C332.573 45.7058 333.092 46.5681 333.697 47.4305L333.784 47.5168L333.697 47.603C332.487 48.8103 331.276 50.1039 330.065 51.3112L329.978 51.3974L329.892 51.3112C329.027 50.7938 328.075 50.1901 327.21 49.6727H327.383C326.345 50.2764 325.307 50.7075 324.27 51.0525L324.356 50.9662C324.097 52.0011 323.924 53.0359 323.751 54.0708V54.157H323.664C321.848 54.157 320.118 54.2433 318.474 54.2433H318.388V54.157C318.128 53.1222 317.869 52.0873 317.609 51.1387L317.696 51.225C316.572 50.9663 315.447 50.5351 314.496 49.9314H314.669C313.717 50.5351 312.852 51.1387 312.074 51.6562L311.987 51.7424L311.901 51.6562C310.603 50.3626 309.306 49.1553 308.182 48.0342L308.095 47.9479L308.182 47.8617C308.787 46.9131 309.306 46.0507 309.825 45.1884V45.3608C309.219 44.326 308.787 43.2911 308.441 42.2563L308.528 42.3425C307.49 42.0838 306.365 41.9113 305.414 41.7389H305.327V41.6526C305.327 39.8416 305.241 38.1169 305.241 36.4784V36.3921H305.327C306.365 36.1334 307.403 35.8747 308.355 35.616L308.268 35.7022C308.527 34.4949 309.046 33.4601 309.565 32.5115V32.5977C308.96 31.6491 308.355 30.7867 307.836 30.0106V29.9243L307.922 29.8381C309.392 28.2858 310.603 27.0785 311.555 26.1299C312.42 26.6473 313.112 27.0785 313.544 27.3372C313.804 27.5097 313.89 27.5959 314.063 27.6822C313.89 27.8547 313.977 27.8547 313.977 27.8547Z" fill="#F5F5F5"/>
<path d="M229.124 50.7938C229.903 50.3626 230.681 50.0177 231.546 49.7589L232.065 47.3443L236.131 47.2581L236.736 49.5865C237.601 49.7589 238.379 50.1039 239.158 50.5351L241.234 49.2415L244.175 52.0011L242.877 54.0708C243.31 54.8469 243.656 55.6231 243.915 56.4855L246.337 57.0029L246.423 61.056L244.088 61.6597C243.915 62.5221 243.569 63.2982 243.137 64.0743L244.434 66.144L241.666 69.0761L239.59 67.7825C238.812 68.2137 238.033 68.5587 237.168 68.8174L236.649 71.232L232.584 71.3183L231.979 68.9899C231.114 68.8174 230.335 68.4724 229.557 68.0413L227.481 69.3348L224.54 66.5752L225.838 64.5055C225.405 63.7294 225.059 62.9533 224.8 62.0909L222.378 61.5735L222.291 57.5203L224.627 56.9166C224.8 56.0543 225.146 55.2781 225.578 54.502L224.281 52.4323L227.049 49.5002L229.124 50.7938ZM231.287 56.2267C229.643 57.9515 229.643 60.7111 231.373 62.3496C233.103 63.9881 235.871 63.9881 237.514 62.2634C239.158 60.5386 239.158 57.779 237.428 56.1405C235.698 54.4158 232.93 54.502 231.287 56.2267Z" fill="#F5F5F5"/>
<path d="M231.287 56.2267C231.287 56.2267 231.546 55.8818 232.065 55.5368C232.671 55.1919 233.622 54.7607 234.92 54.8469C235.525 54.9332 236.217 55.1056 236.822 55.5368C237.428 55.968 238.033 56.4854 238.379 57.2616C238.552 57.6065 238.725 58.0377 238.812 58.4689C238.898 58.9001 238.898 59.3313 238.812 59.7625C238.725 60.6248 238.293 61.5734 237.601 62.2633C236.909 62.9532 236.044 63.3844 235.179 63.5569C234.747 63.6431 234.314 63.6431 233.882 63.5569C233.449 63.4707 233.017 63.3844 232.671 63.212C231.892 62.867 231.287 62.3496 230.854 61.7459C230.422 61.1423 230.162 60.4524 230.076 59.8487C229.903 58.5551 230.249 57.6065 230.681 57.0029C230.941 56.3992 231.287 56.2267 231.287 56.2267C231.287 56.2267 231.027 56.4854 230.681 57.0891C230.335 57.6928 229.989 58.6414 230.162 59.8487C230.249 60.4524 230.508 61.056 230.941 61.6597C231.373 62.2633 231.979 62.7808 232.671 63.0395C233.017 63.212 233.449 63.2982 233.795 63.3844C234.228 63.4707 234.66 63.4707 235.093 63.3844C235.958 63.212 236.736 62.7808 237.428 62.1771C238.033 61.4872 238.466 60.7111 238.552 59.8487C238.639 59.4175 238.639 58.9863 238.552 58.5551C238.466 58.124 238.379 57.779 238.206 57.434C237.86 56.7441 237.341 56.1405 236.736 55.7955C236.131 55.3643 235.525 55.1919 234.92 55.1056C233.709 54.9332 232.757 55.3644 232.152 55.7093C231.546 55.8818 231.287 56.2267 231.287 56.2267Z" fill="#F5F5F5"/>
<path d="M229.124 50.7938C229.124 50.7938 229.038 50.7938 228.951 50.7075C228.865 50.6213 228.692 50.5351 228.519 50.4488C228.173 50.2764 227.654 49.9314 226.962 49.5002H227.049C226.357 50.2764 225.405 51.225 224.281 52.4323V52.3461C224.713 52.9497 225.146 53.6396 225.665 54.4158C225.232 55.1057 224.973 55.968 224.713 56.8304V56.9166H224.627C223.848 57.0891 223.07 57.2616 222.291 57.5203L222.378 57.4341C222.378 58.7276 222.464 60.0212 222.464 61.4872L222.378 61.401C223.156 61.5735 223.935 61.7459 224.8 61.9184H224.886V62.0046C225.146 62.7808 225.492 63.6431 225.924 64.4193V64.5055V64.5918C225.492 65.1954 225.059 65.9716 224.627 66.6615V66.489C225.578 67.3514 226.53 68.3 227.568 69.2486H227.395C228 68.8174 228.692 68.3862 229.47 67.955H229.557H229.643C230.335 68.3862 231.2 68.7312 232.065 68.9036H232.152V68.9899C232.325 69.766 232.498 70.5421 232.757 71.3183L232.671 71.232C233.968 71.232 235.352 71.1458 236.736 71.1458L236.649 71.232C236.822 70.4559 236.995 69.6798 237.168 68.8174V68.7312H237.255C238.033 68.4724 238.898 68.1275 239.677 67.6963H239.763H239.85C240.542 68.1275 241.234 68.5587 241.926 68.9899H241.753C242.704 68.0413 243.656 67.0064 244.521 66.0578V66.2303C244.088 65.5404 243.656 64.8505 243.223 64.1606V64.0743V63.9881C243.656 63.212 244.002 62.4358 244.175 61.5735V61.4872H244.261C245.039 61.3147 245.818 61.1423 246.596 60.8836L246.51 60.9698C246.51 59.59 246.423 58.2964 246.423 56.9166L246.51 57.0029C245.731 56.8304 244.866 56.6579 244.088 56.4855H244.002V56.3992C243.742 55.5368 243.396 54.7607 242.964 53.9846V53.8983V53.8121C243.396 53.1222 243.829 52.4323 244.261 51.7424V51.8286C243.223 50.88 242.272 49.9314 241.32 49.069H241.407C240.715 49.5002 240.023 49.9314 239.331 50.3626H239.244H239.158C238.379 49.9314 237.514 49.5865 236.736 49.414H236.649V49.3278C236.476 48.4654 236.217 47.6892 236.044 46.9993L236.131 47.0856C234.574 47.0856 233.276 47.0856 232.065 47.1718L232.152 47.0856C231.979 48.0342 231.806 48.8103 231.633 49.5002C230.768 49.7589 230.162 50.0177 229.816 50.1901C229.643 50.2764 229.47 50.3626 229.384 50.4488C229.124 50.7938 229.124 50.7938 229.124 50.7938C229.124 50.7938 229.211 50.7938 229.297 50.7075C229.384 50.6213 229.557 50.5351 229.73 50.4488C230.076 50.2764 230.681 49.9314 231.546 49.6727C231.719 48.9828 231.806 48.2067 232.065 47.2581V47.1718H232.152C233.276 47.1718 234.66 47.0856 236.217 47.0856H236.304V47.1718C236.476 47.8617 236.649 48.6379 236.909 49.5002L236.822 49.414C237.601 49.5865 238.466 49.9314 239.331 50.3626H239.244C239.85 49.9314 240.542 49.5002 241.32 48.9828H241.407L241.493 49.069C242.445 49.9314 243.396 50.88 244.434 51.8286L244.521 51.9149V52.0011C244.088 52.691 243.656 53.3809 243.223 54.0708V53.9846C243.656 54.7607 244.002 55.5368 244.261 56.3992L244.175 56.313C244.953 56.4855 245.731 56.6579 246.596 56.8304H246.683V56.9166C246.683 58.2102 246.769 59.59 246.769 60.9698V61.056H246.683C245.904 61.2285 245.126 61.401 244.348 61.6597L244.434 61.5735C244.261 62.4358 243.915 63.2982 243.483 64.0743V63.9881C243.915 64.678 244.348 65.3679 244.78 66.0578L244.866 66.144L244.78 66.2303C243.829 67.1789 242.964 68.1275 242.012 69.1623L241.926 69.2486L241.839 69.1623C241.147 68.7312 240.455 68.3 239.763 67.8688H239.85C239.071 68.3 238.206 68.7312 237.428 68.9036L237.514 68.8174C237.341 69.5935 237.168 70.4559 236.995 71.232V71.3183H236.909C235.525 71.3183 234.141 71.4045 232.844 71.4045H232.757V71.3183C232.584 70.5421 232.325 69.6798 232.152 68.9899L232.238 69.0761C231.373 68.8174 230.508 68.4724 229.73 68.1275H229.816C229.124 68.5587 228.432 69.0761 227.741 69.4211L227.654 69.5073L227.568 69.4211C226.53 68.4724 225.578 67.5238 224.627 66.6615L224.54 66.5752L224.627 66.489C225.059 65.7991 225.492 65.0229 225.924 64.4193V64.5055C225.405 63.7294 225.059 62.867 224.886 62.0909L224.973 62.1771C224.108 62.0046 223.329 61.8322 222.551 61.6597H222.464V61.5735C222.464 60.1937 222.464 58.8139 222.378 57.5203V57.4341H222.464C223.329 57.2616 224.108 57.0029 224.8 56.8304L224.713 56.9166C224.973 55.968 225.319 55.1919 225.665 54.4158V54.502C225.146 53.7259 224.713 53.1222 224.367 52.4323C225.492 51.225 226.443 50.2764 227.222 49.5865C227.914 50.0177 228.432 50.2764 228.778 50.5351C228.951 50.6213 229.038 50.7076 229.211 50.7938C229.038 50.7938 229.124 50.7938 229.124 50.7938Z" fill="#F5F5F5"/>
<path d="M44.1123 121.853C44.8907 121.422 45.6692 121.077 46.5341 120.818L47.0531 118.404L51.1184 118.318L51.7238 120.646C52.5888 120.818 53.3672 121.163 54.1457 121.595L56.2215 120.301L59.1624 123.061L57.8649 125.13C58.2974 125.907 58.6434 126.683 58.9029 127.545L61.3247 128.062L61.4112 132.116L59.0759 132.719C58.9029 133.582 58.5569 134.358 58.1244 135.134L59.4218 137.204L56.654 140.136L54.5781 138.842C53.7997 139.273 53.0212 139.618 52.1563 139.877L51.6373 142.292L47.5721 142.378L46.9666 140.049C46.1017 139.877 45.3232 139.532 44.5448 139.101L42.4689 140.394L39.5281 137.635L40.8255 135.565C40.393 134.789 40.047 134.013 39.7876 133.15L37.3657 132.633L37.1927 128.494L39.5281 127.89C39.7011 127.028 40.047 126.251 40.4795 125.475L39.1821 123.406L41.9499 120.474L44.1123 121.853ZM46.2747 127.2C44.6313 128.925 44.6313 131.684 46.3612 133.323C48.091 134.961 50.8589 134.961 52.5023 133.237C54.1457 131.512 54.1457 128.752 52.4158 127.114C50.6859 125.389 47.9181 125.475 46.2747 127.2Z" fill="#F5F5F5"/>
<path d="M46.2747 127.2C46.2747 127.2 46.5341 126.855 47.0531 126.51C47.6586 126.165 48.61 125.734 49.9074 125.82C50.5129 125.906 51.2049 126.079 51.8103 126.51C52.4158 126.941 53.0213 127.459 53.3672 128.235C53.5402 128.58 53.7132 129.011 53.7997 129.442C53.8862 129.873 53.8862 130.305 53.7997 130.736C53.7132 131.598 53.2807 132.547 52.5888 133.237C51.8968 133.927 51.0319 134.358 50.1669 134.53C49.7345 134.616 49.302 134.616 48.8695 134.53C48.437 134.444 48.0046 134.358 47.6586 134.185C46.8801 133.84 46.2747 133.323 45.8422 132.719C45.4097 132.116 45.1502 131.426 45.0637 130.822C44.8907 129.528 45.2367 128.58 45.6692 127.976C45.9287 127.459 46.2747 127.2 46.2747 127.2C46.2747 127.2 46.0152 127.459 45.6692 128.062C45.3232 128.666 44.9772 129.615 45.1502 130.822C45.2367 131.426 45.4962 132.029 45.9287 132.633C46.3612 133.237 46.9666 133.754 47.6586 134.013C48.0046 134.185 48.437 134.272 48.783 134.358C49.2155 134.444 49.648 134.444 50.0804 134.358C50.9454 134.185 51.7238 133.754 52.4158 133.15C53.0212 132.461 53.4537 131.684 53.5402 130.822C53.6267 130.391 53.6267 129.96 53.5402 129.528C53.4537 129.097 53.3672 128.752 53.1942 128.407C52.8483 127.717 52.3293 127.114 51.7238 126.769C51.1184 126.338 50.5129 126.165 49.9074 126.079C48.6965 125.906 47.7451 126.338 47.1396 126.683C46.5341 126.941 46.2747 127.2 46.2747 127.2Z" fill="#F5F5F5"/>
<path d="M44.1133 121.853C44.1133 121.853 44.0268 121.853 43.9403 121.767C43.8538 121.681 43.6808 121.595 43.5078 121.508C43.1618 121.336 42.6428 120.991 41.9509 120.56H42.0374C41.3454 121.336 40.394 122.285 39.2696 123.492V123.406C39.702 124.009 40.1345 124.699 40.6535 125.475C40.221 126.165 39.9615 127.028 39.702 127.89V127.976H39.6155C38.8371 128.149 38.0586 128.321 37.2802 128.58L37.3667 128.494C37.3667 129.787 37.4532 131.081 37.4532 132.547L37.3667 132.461C38.1451 132.633 38.9236 132.805 39.7885 132.978H39.875V133.064C40.1345 133.84 40.4805 134.703 40.913 135.479V135.565V135.651C40.4805 136.255 40.048 137.031 39.6155 137.721V137.549C40.567 138.411 41.5184 139.36 42.5564 140.308H42.3834C42.9888 139.877 43.6808 139.446 44.4592 139.015H44.5457H44.6322C45.3242 139.446 46.1891 139.791 47.0541 139.963H47.1406V140.049C47.3136 140.826 47.4866 141.602 47.746 142.378L47.6595 142.292C48.957 142.292 50.3409 142.205 51.7248 142.205L51.6383 142.292C51.8113 141.515 51.9843 140.739 52.1573 139.877V139.791H52.2438C53.0222 139.532 53.8872 139.187 54.6656 138.756H54.7521H54.8386C55.5306 139.187 56.2225 139.618 56.9145 140.049H56.7415C57.6929 139.101 58.6444 138.066 59.5093 137.117V137.29C59.0768 136.6 58.6444 135.91 58.2119 135.22V135.134V135.048C58.6444 134.272 58.9903 133.495 59.1633 132.633V132.547H59.2498C60.0283 132.374 60.8067 132.202 61.5852 131.943L61.4987 132.029C61.4987 130.65 61.4122 129.356 61.4122 127.976L61.4987 128.062C60.7202 127.89 59.8553 127.717 59.0768 127.545H58.9903V127.459C58.7309 126.596 58.3849 125.82 57.9524 125.044V124.958V124.872C58.3849 124.182 58.8174 123.492 59.2498 122.802V122.888C58.2119 121.94 57.2605 120.991 56.309 120.129H56.3955C55.7035 120.56 55.0116 121.077 54.3196 121.422H54.2331H54.1466C53.3682 120.991 52.5032 120.646 51.7248 120.474H51.6383V120.387C51.4653 119.525 51.2058 118.749 51.0328 118.059L51.1193 118.145C49.5624 118.145 48.265 118.145 47.0541 118.231L47.1406 118.145C46.9676 119.094 46.7946 119.87 46.6216 120.56C45.7567 120.818 45.1512 121.077 44.8052 121.25C44.6322 121.336 44.4592 121.422 44.3727 121.508C44.1133 121.767 44.1133 121.853 44.1133 121.853C44.1133 121.853 44.1998 121.853 44.2862 121.767C44.3727 121.681 44.5457 121.595 44.7187 121.508C45.0647 121.336 45.6702 120.991 46.5351 120.732C46.7081 120.042 46.7946 119.266 47.0541 118.318V118.231H47.1406C48.265 118.231 49.6489 118.145 51.2058 118.145H51.2923V118.231C51.4653 118.921 51.6383 119.697 51.8978 120.56L51.8113 120.474C52.5897 120.646 53.4547 120.991 54.3196 121.422H54.2331C54.8386 120.991 55.5306 120.56 56.309 120.042H56.3955L56.482 120.129C57.4334 120.991 58.3849 121.94 59.4228 122.888L59.5093 122.974V123.061C59.0768 123.751 58.6444 124.44 58.2119 125.13V125.044C58.6444 125.82 58.9903 126.596 59.2498 127.459L59.1633 127.373C59.9418 127.545 60.7202 127.717 61.5852 127.89H61.6717V127.976C61.6717 129.27 61.7582 130.65 61.7582 132.029V132.116H61.6717C60.8932 132.288 60.1148 132.461 59.3363 132.719L59.4228 132.633C59.2498 133.495 58.9039 134.358 58.4714 135.134V135.048C58.9039 135.738 59.3363 136.427 59.7688 137.117L59.8553 137.204L59.7688 137.29C58.8174 138.238 57.9524 139.187 57.001 140.222L56.9145 140.308L56.828 140.222C56.136 139.791 55.4441 139.36 54.7521 138.928H54.8386C54.0602 139.36 53.1952 139.791 52.4167 139.963L52.5032 139.877C52.3303 140.653 52.1573 141.515 51.9843 142.292V142.378H51.8978C50.5139 142.378 49.1299 142.464 47.8325 142.464H47.746V142.378C47.573 141.602 47.3136 140.739 47.1406 140.049L47.2271 140.136C46.3621 139.877 45.4972 139.532 44.7187 139.187H44.8052C44.1133 139.618 43.4213 140.136 42.7293 140.481L42.6428 140.567L42.5564 140.481C41.5184 139.532 40.567 138.583 39.6155 137.721L39.529 137.635L39.6155 137.549C40.048 136.859 40.4805 136.083 40.913 135.479V135.565C40.394 134.789 40.048 133.927 39.875 133.15L39.9615 133.237C39.0966 133.064 38.3181 132.892 37.5397 132.719H37.4532V132.633C37.4532 131.253 37.4532 129.873 37.3667 128.58V128.494H37.4532C38.3181 128.321 39.0966 128.062 39.7885 127.89L39.702 127.976C39.9615 127.028 40.3075 126.251 40.6535 125.475V125.562C40.1345 124.785 39.702 124.182 39.356 123.492C40.4805 122.285 41.4319 121.336 42.2104 120.646C42.9023 121.077 43.4213 121.336 43.7673 121.595C43.9403 121.681 44.0268 121.767 44.1998 121.853C44.0268 121.767 44.1133 121.853 44.1133 121.853Z" fill="#F5F5F5"/>
<path d="M62.9681 184.463C65.39 182.997 67.9848 181.876 70.5797 181.186L72.1366 173.597L84.9378 173.338L86.7542 180.841C89.4355 181.531 92.0304 182.479 94.5387 183.859L101.026 179.633L110.194 188.516L106.215 195.07C107.686 197.485 108.81 200.072 109.502 202.659L117.114 204.211L117.373 216.974L109.848 218.785C109.156 221.458 108.205 224.046 106.821 226.547L111.059 233.014L102.15 242.155L95.5766 238.189C93.1548 239.655 90.5599 240.776 87.9651 241.466L86.4082 249.054L73.5205 249.399L71.7041 241.897C69.0228 241.207 66.4279 240.258 63.9196 238.878L57.4325 243.104L48.264 234.222L52.2428 227.668C50.7724 225.253 49.648 222.666 48.956 220.079L41.3445 218.526L41.085 205.763L48.61 203.952C49.302 201.279 50.2534 198.692 51.6373 196.191L47.3991 189.723L56.308 180.582L62.9681 184.463ZM69.8012 201.451C64.525 206.884 64.698 215.594 70.1472 220.769C75.5964 226.029 84.2458 225.857 89.522 220.424C94.7982 214.991 94.6252 206.281 89.176 201.106C83.7269 195.846 75.0774 196.019 69.8012 201.451Z" stroke="#E0E0E0" stroke-width="0.05" stroke-miterlimit="10"/>
<path d="M69.8012 201.45C69.8012 201.45 70.4932 200.416 72.3961 199.208C74.2124 198.001 77.3263 196.707 81.3915 197.139C83.3809 197.397 85.5432 198.001 87.4461 199.294C89.349 200.588 91.2519 202.399 92.3763 204.814C92.9818 206.021 93.4143 207.315 93.5873 208.694C93.8467 210.074 93.8467 211.454 93.6737 212.92C93.3278 215.766 91.9439 218.612 89.868 220.768C87.7056 222.923 84.9378 224.39 82.0835 224.821C80.6995 225.079 79.2291 225.079 77.8452 224.907C76.4613 224.734 75.1639 224.39 73.953 223.786C71.5311 222.751 69.6282 220.94 68.2443 219.043C66.8604 217.146 66.1684 214.99 65.9089 213.092C65.39 209.126 66.6009 205.935 67.7253 204.124C68.8498 202.227 69.8012 201.45 69.8012 201.45C69.8877 201.537 68.9363 202.313 67.8983 204.21C66.8604 206.021 65.736 209.212 66.3414 213.006C66.6874 214.903 67.3794 216.887 68.6768 218.698C69.9742 220.509 71.8771 222.147 74.1259 223.096C75.2504 223.613 76.5478 223.958 77.8452 224.131C79.1426 224.303 80.5266 224.303 81.824 224.045C84.5053 223.613 87.1002 222.234 89.176 220.164C91.1654 218.094 92.4628 215.421 92.8088 212.747C92.9818 211.368 92.9818 210.074 92.7223 208.781C92.5493 207.487 92.1168 206.28 91.5979 205.159C90.5599 202.916 88.83 201.105 86.9272 199.898C85.1108 198.605 83.0349 198.001 81.132 197.742C77.3263 197.225 74.2124 198.432 72.3961 199.553C70.6662 200.588 69.8877 201.537 69.8012 201.45Z" fill="#EBEBEB"/>
<path d="M62.9681 184.462C62.9681 184.462 62.7951 184.375 62.5357 184.203C62.1897 184.03 61.8437 183.772 61.2382 183.513C60.1138 182.823 58.3839 181.875 56.2215 180.581H56.3945C54.1457 182.909 51.1184 186.014 47.5721 189.808V189.55C48.8695 191.533 50.3399 193.689 51.8103 196.017L51.8968 196.104L51.8103 196.19C50.5129 198.432 49.475 201.019 48.783 203.865V204.038H48.61C46.2747 204.641 43.7663 205.245 41.085 205.935L41.258 205.676C41.3445 209.729 41.431 213.955 41.5174 218.439L41.258 218.18C43.5933 218.698 46.1882 219.215 48.8695 219.733H49.0425L49.302 219.905C49.9939 222.406 51.1184 224.993 52.5888 227.408L52.6753 227.58L52.5888 227.753C51.3778 229.822 49.9939 232.065 48.61 234.307L48.5235 233.876C51.3778 236.635 54.5781 239.654 57.7785 242.758H57.346C59.3354 241.465 61.5842 239.998 63.8331 238.532L64.0061 238.446L64.1791 238.532C66.4279 239.826 69.1093 240.861 71.8771 241.551L72.1366 241.637L72.2231 241.896C72.8285 244.224 73.434 246.811 74.0394 249.398L73.6935 249.14C77.7587 249.053 82.0835 248.967 86.4947 248.881L86.1487 249.226C86.6677 246.811 87.1866 244.31 87.7056 241.637L87.7921 241.378L88.0516 241.292C90.5599 240.602 93.1548 239.481 95.5766 238.015L95.7496 237.929L95.9226 238.015C98.1715 239.395 100.334 240.688 102.496 241.982L101.977 242.068C105.005 238.964 107.945 235.945 110.886 232.927L110.8 233.444C109.416 231.289 107.945 229.133 106.561 226.977L106.475 226.804L106.561 226.632C107.945 224.217 108.897 221.63 109.589 218.957L109.675 218.698L109.935 218.612C112.443 218.008 114.951 217.404 117.46 216.801L117.2 217.146C117.114 212.834 117.027 208.522 117.027 204.382L117.287 204.727C114.692 204.21 112.184 203.693 109.675 203.175L109.502 203.089L109.416 202.916C108.637 200.243 107.513 197.656 106.129 195.328L106.042 195.155L106.129 194.983C107.513 192.74 108.81 190.498 110.108 188.429L110.194 188.86C106.994 185.755 103.88 182.823 101.026 179.977H101.372C99.1229 181.443 96.9605 182.823 94.8847 184.203L94.7117 184.289L94.5387 184.203C91.9439 182.737 89.349 181.788 86.8407 181.185H86.6677V181.012C85.9757 178.253 85.3703 175.838 84.8513 173.509L85.1108 173.682C80.1806 173.768 75.9423 173.768 72.3096 173.854L72.4825 173.682C71.7906 176.7 71.2716 179.201 70.8391 181.185V181.271H70.7527C68.0713 182.047 66.1684 182.909 64.871 183.513C64.2656 183.858 63.8331 184.03 63.4871 184.203C63.1411 184.375 62.9681 184.462 62.9681 184.462C62.9681 184.462 63.1411 184.375 63.4006 184.203C63.6601 184.03 64.1791 183.772 64.7845 183.427C65.9954 182.737 67.8983 181.875 70.6662 181.098L70.5797 181.185C71.0121 179.115 71.5311 176.614 72.1366 173.596V173.423H72.3096C75.9423 173.337 80.1806 173.251 85.1108 173.165H85.2838L85.3703 173.337C85.9757 175.665 86.5812 178.08 87.2731 180.84L87.1001 180.667C89.695 181.271 92.2898 182.306 94.9712 183.686H94.7117C96.7876 182.306 98.8634 180.926 101.199 179.46L101.372 179.287L101.545 179.46C104.486 182.219 107.513 185.152 110.8 188.342L110.973 188.515L110.8 188.773C109.502 190.929 108.205 193.085 106.821 195.328V194.983C108.291 197.311 109.416 199.898 110.194 202.658L109.935 202.399C112.443 202.916 114.951 203.434 117.546 203.951L117.806 204.038V204.296C117.892 208.436 117.979 212.661 118.065 217.059V217.318L117.806 217.404C115.297 218.008 112.876 218.612 110.281 219.215L110.54 218.957C109.848 221.63 108.81 224.303 107.426 226.804V226.373C108.81 228.529 110.281 230.685 111.665 232.841L111.838 233.099L111.665 233.358C108.724 236.377 105.783 239.395 102.756 242.499L102.496 242.758L102.237 242.586C100.074 241.292 97.8255 239.912 95.6631 238.619H96.0956C93.5872 240.085 90.9059 241.206 88.3976 241.982L88.6571 241.723C88.1381 244.31 87.6191 246.897 87.1001 249.312L87.0137 249.657H86.6677C82.2564 249.743 77.9317 249.83 73.8665 249.916H73.5205L73.434 249.657C72.8285 247.07 72.1366 244.483 71.6176 242.154L71.8771 242.413C69.0228 241.723 66.3414 240.602 64.0061 239.309H64.352C62.1032 240.775 59.8543 242.241 57.8649 243.534L57.6055 243.707L57.4325 243.534C54.2322 240.43 51.1184 237.411 48.264 234.652L48.091 234.479L48.264 234.221C49.6479 231.892 51.0319 229.65 52.2428 227.667V228.011C50.6859 225.511 49.5615 222.837 48.8695 220.336L49.129 220.595C46.4476 220.078 43.9393 219.474 41.6039 219.043L41.3445 218.957V218.698C41.258 214.214 41.1715 209.988 41.1715 205.935V205.676L41.431 205.59C44.0258 204.986 46.6206 204.382 48.956 203.779L48.783 203.951C49.475 201.105 50.5994 198.432 51.8968 196.19V196.449C50.3399 194.12 48.956 191.964 47.6586 189.981L47.5721 189.808L47.6586 189.722C51.2913 186.014 54.3187 182.909 56.5675 180.581L56.654 180.495L56.7405 180.581C58.8164 181.875 60.4598 182.909 61.5842 183.599C62.1032 183.944 62.5357 184.203 62.7951 184.375L62.9681 184.462Z" fill="#EBEBEB"/>
<path d="M283.53 55.7955C285.432 55.7955 287.335 56.1405 289.065 56.6579L292.698 52.9497L300.05 57.4341L298.407 62.3496C299.704 63.6431 300.829 65.1954 301.693 66.8339L306.883 66.7477L308.959 75.1127L304.288 77.4411C304.288 79.3383 303.942 81.2356 303.423 82.9603L307.143 86.5823L302.645 93.9124L297.715 92.2739C296.417 93.5675 294.86 94.6886 293.217 95.551L293.303 100.725L284.913 102.795L282.578 98.1381C280.675 98.1381 278.772 97.7931 277.042 97.2757L273.41 100.984L266.058 96.4996L267.701 91.584C266.404 90.2905 265.279 88.7382 264.414 87.0997L259.225 87.1859L257.149 78.8209L261.819 76.4925C261.819 74.5953 262.165 72.6981 262.684 70.9733L258.965 67.3513L263.463 60.0212L268.393 61.6597C269.69 60.3661 271.247 59.245 272.891 58.3827L272.804 53.2084L281.194 51.1387L283.53 55.7955ZM281.281 67.8688C276.351 69.0761 273.323 74.0779 274.534 78.9934C275.745 83.9089 280.762 86.9272 285.692 85.7199C290.622 84.5126 293.649 79.5108 292.439 74.5953C291.228 69.6798 286.297 66.6614 281.281 67.8688Z" fill="#E0E0E0"/>
<path d="M281.281 67.8688C281.281 67.8688 282.059 67.5238 283.53 67.5238C285 67.5238 287.249 67.8688 289.411 69.5073C290.449 70.3697 291.487 71.4907 292.093 72.8705C292.698 74.3366 293.131 75.9751 292.871 77.7861C292.785 78.6484 292.525 79.5971 292.179 80.4594C291.833 81.3218 291.314 82.1842 290.709 82.8741C289.498 84.3401 287.681 85.4612 285.692 85.9786C283.703 86.4098 281.627 86.3236 279.81 85.5474C278.945 85.2025 278.08 84.6851 277.389 84.0814C276.697 83.4777 276.091 82.7878 275.572 82.0979C274.534 80.6319 274.102 78.9072 274.015 77.3549C273.929 75.8026 274.275 74.3366 274.794 73.1293C275.918 70.6284 277.734 69.3348 279.032 68.6449C280.502 67.955 281.281 67.8688 281.281 67.8688C281.281 67.955 280.502 68.0413 279.205 68.7312C277.994 69.4211 276.178 70.8009 275.226 73.1293C274.707 74.3366 274.448 75.7164 274.534 77.1824C274.621 78.6484 275.053 80.287 276.091 81.6668C276.524 82.3567 277.129 83.0466 277.821 83.564C278.513 84.1676 279.291 84.5988 280.156 84.9438C281.886 85.6337 283.789 85.8061 285.692 85.375C287.595 84.8575 289.238 83.8227 290.449 82.4429C291.055 81.753 291.487 80.9769 291.833 80.1145C292.179 79.3383 292.439 78.476 292.525 77.6136C292.698 75.9751 292.352 74.3366 291.833 72.9568C291.228 71.577 290.276 70.4559 289.325 69.6798C287.335 68.0413 285.173 67.6101 283.703 67.6101C282.146 67.6963 281.281 67.955 281.281 67.8688Z" fill="#E0E0E0"/>
<path d="M283.53 55.7965C283.53 55.7965 283.443 55.7103 283.357 55.5378C283.27 55.3654 283.097 55.0204 282.924 54.6755C282.492 53.8993 281.886 52.692 281.108 51.226L281.194 51.3122C279.032 51.8296 276.264 52.5195 272.891 53.3819L272.977 53.2094C272.977 54.7617 273.064 56.4864 273.064 58.3837V58.4699L272.977 58.5561C271.42 59.4185 269.95 60.4533 268.48 61.8331L268.393 61.9194H268.307C266.75 61.402 265.106 60.8845 263.376 60.2809L263.636 60.1946C262.252 62.523 260.782 64.9377 259.225 67.5248V67.2661C260.349 68.3872 261.646 69.5945 262.944 70.8881L263.03 70.9743V71.0605C262.511 72.699 262.252 74.5963 262.165 76.4935V76.666L262.079 76.7522C260.609 77.4421 259.052 78.3045 257.408 79.0806L257.495 78.8219C258.1 81.409 258.879 84.2548 259.571 87.1869L259.311 87.0144C260.954 87.0144 262.684 86.9282 264.501 86.9282H264.674L264.76 87.1007C265.625 88.6529 266.75 90.2052 268.047 91.585L268.134 91.6713L268.047 91.8437C267.528 93.396 267.009 95.0345 266.404 96.7593L266.317 96.4143C268.653 97.7941 271.161 99.3464 273.669 100.899H273.323C274.448 99.6913 275.659 98.484 276.956 97.1904L277.043 97.1042L277.216 97.1904C278.945 97.7079 280.762 97.9666 282.665 98.0528H282.838L282.924 98.2253C283.703 99.7776 284.481 101.33 285.26 102.882L285 102.71C287.854 102.02 290.622 101.33 293.39 100.64L293.217 100.899C293.217 99.1739 293.131 97.4492 293.131 95.7244V95.5519L293.304 95.4657C294.947 94.6033 296.417 93.4822 297.801 92.1887L297.888 92.1024L298.061 92.1887C299.704 92.7061 301.348 93.3098 302.991 93.8272L302.731 93.9134C304.288 91.4125 305.759 88.9979 307.229 86.5833V86.842C305.932 85.6346 304.721 84.4273 303.51 83.22L303.423 83.1338V82.9613C303.942 81.1503 304.202 79.3393 304.288 77.5283V77.3559L304.375 77.2696C305.932 76.4935 307.489 75.7174 309.046 74.9412L308.786 75.0275C308.094 72.0954 307.402 69.3358 306.797 66.6624L306.97 66.8349C305.153 66.8349 303.423 66.9211 301.78 66.9211H301.694L301.607 66.8349C300.656 65.1102 299.531 63.6441 298.32 62.3506L298.234 62.2643V62.1781C298.839 60.3671 299.358 58.8148 299.877 57.2626L299.964 57.435C297.109 55.7103 294.687 54.2443 292.612 52.9507H292.785C291.314 54.4167 290.103 55.6241 289.152 56.6589H289.065C287.249 56.1415 285.865 55.969 284.914 55.8828C284.481 55.8828 284.135 55.7965 283.876 55.7965C283.616 55.7965 283.53 55.7965 283.53 55.7965C283.53 55.7965 283.616 55.7965 283.876 55.7965C284.135 55.7965 284.481 55.7965 284.914 55.7965C285.865 55.8828 287.249 56.0552 289.065 56.5727H288.979C289.93 55.5378 291.141 54.3305 292.525 52.7782L292.612 52.692L292.698 52.7782C294.774 53.9856 297.196 55.4516 300.05 57.1763L300.137 57.2626V57.3488C299.618 58.9011 299.099 60.4533 298.493 62.2643V62.0919C299.704 63.3854 300.915 64.8515 301.867 66.6624L301.694 66.5762C303.337 66.5762 305.067 66.49 306.883 66.49H307.056V66.6624C307.748 69.3358 308.354 72.0954 309.132 75.0275V75.1999L308.959 75.2862C307.489 76.0623 305.932 76.8384 304.288 77.6146L304.375 77.4421C304.375 79.2531 304.029 81.1503 303.51 83.0475L303.423 82.7888C304.634 83.9961 305.932 85.2035 307.143 86.4108L307.316 86.5833L307.229 86.7557C305.759 89.1704 304.288 91.585 302.818 94.0859L302.731 94.2584L302.558 94.1721C300.915 93.6547 299.272 93.0511 297.628 92.5336L297.888 92.4474C296.504 93.7409 295.033 94.862 293.304 95.8106L293.477 95.5519C293.477 97.2767 293.563 99.0014 293.563 100.726V100.899L293.39 100.985C290.622 101.675 287.854 102.365 285 103.055L284.827 103.141L284.741 102.968C283.962 101.416 283.184 99.8638 282.405 98.3115L282.665 98.484C280.675 98.484 278.772 98.139 277.043 97.6216L277.302 97.5354C276.091 98.8289 274.794 100.123 273.669 101.244L273.496 101.416L273.323 101.33C270.815 99.7776 268.307 98.3115 265.971 96.8455L265.798 96.7593L265.885 96.5868C266.49 94.862 267.009 93.2235 267.528 91.6713L267.615 91.93C266.231 90.5502 265.106 88.9117 264.241 87.3594L264.501 87.5319C262.684 87.5319 260.954 87.6181 259.311 87.6181H259.138L259.052 87.4456C258.36 84.5136 257.668 81.754 256.976 79.0806L256.889 78.9081L257.062 78.8219C258.706 78.0458 260.263 77.2696 261.733 76.4935L261.646 76.666C261.646 74.6825 261.992 72.7853 262.511 71.0605L262.598 71.3192C261.3 70.0257 260.003 68.8184 258.879 67.6973L258.792 67.611L258.879 67.4386C260.436 64.8514 261.906 62.4368 263.376 60.1084L263.463 60.0222L263.636 60.1084C265.366 60.7121 267.009 61.2295 268.566 61.7469H268.393C269.863 60.3671 271.42 59.246 272.977 58.3837L272.891 58.5561C272.891 56.6589 272.804 54.9342 272.804 53.3819V53.2957H272.891C276.264 52.5195 279.118 51.8296 281.281 51.3122H281.367V51.3984C282.059 52.8645 282.665 54.0718 283.011 54.8479C283.184 55.1929 283.357 55.5378 283.443 55.7103C283.53 55.6241 283.53 55.7965 283.53 55.7965Z" fill="#E0E0E0"/>
<path d="M307.662 219.215C307.662 219.215 308.44 218.87 309.91 218.87C311.381 218.87 313.716 219.215 315.792 220.854C316.83 221.716 317.868 222.837 318.473 224.303C319.079 225.769 319.511 227.494 319.252 229.219C319.165 230.081 318.906 231.03 318.56 231.892C318.214 232.755 317.695 233.617 317.09 234.307C315.879 235.859 314.062 236.98 312.073 237.498C310.083 238.015 307.921 237.843 306.105 237.066C305.24 236.721 304.375 236.204 303.683 235.6C302.991 234.997 302.299 234.307 301.866 233.531C300.829 232.065 300.396 230.34 300.31 228.788C300.223 227.235 300.569 225.683 301.088 224.476C302.212 221.975 304.029 220.595 305.413 219.991C306.883 219.302 307.662 219.215 307.662 219.215C307.662 219.302 306.883 219.474 305.586 220.164C304.288 220.854 302.558 222.234 301.52 224.648C301.002 225.856 300.742 227.235 300.829 228.788C300.915 230.254 301.434 231.892 302.385 233.272C302.818 233.962 303.423 234.652 304.115 235.169C304.807 235.773 305.586 236.204 306.451 236.549C308.181 237.239 310.17 237.411 312.073 236.98C313.976 236.463 315.706 235.428 316.83 234.048C317.435 233.358 317.868 232.582 318.214 231.72C318.56 230.944 318.819 230.081 318.906 229.219C319.079 227.494 318.733 225.856 318.214 224.476C317.608 223.096 316.657 221.975 315.706 221.113C313.716 219.474 311.467 219.043 309.997 219.043C308.527 219.043 307.662 219.302 307.662 219.215Z" fill="#EBEBEB"/>
<path d="M309.91 206.97C309.91 206.97 309.824 206.883 309.737 206.711C309.651 206.538 309.478 206.193 309.305 205.848C308.873 205.072 308.267 203.865 307.489 202.399L307.575 202.485C305.413 203.003 302.558 203.779 299.185 204.555L299.272 204.382C299.272 205.935 299.358 207.746 299.358 209.643V209.729L299.272 209.815C297.715 210.678 296.158 211.799 294.774 213.179L294.687 213.265H294.601C293.044 212.747 291.401 212.23 289.584 211.626L289.844 211.54C288.46 213.869 286.903 216.369 285.346 218.957V218.698C286.557 219.819 287.768 221.026 289.152 222.32L289.238 222.406V222.492C288.719 224.131 288.46 226.028 288.373 228.011V228.184L288.287 228.27C286.816 228.96 285.259 229.822 283.616 230.599L283.703 230.34C284.395 233.013 285.086 235.859 285.778 238.791L285.519 238.619C287.162 238.619 288.979 238.532 290.795 238.532H290.968L291.055 238.705C291.92 240.257 293.044 241.809 294.341 243.189L294.428 243.275L294.341 243.448C293.822 245 293.217 246.725 292.698 248.45L292.612 248.105C294.947 249.485 297.455 251.037 300.05 252.589H299.704C300.829 251.382 302.126 250.088 303.337 248.795L303.423 248.708L303.596 248.795C305.326 249.312 307.229 249.571 309.132 249.657H309.305L309.392 249.83C310.17 251.382 310.948 252.934 311.727 254.486L311.467 254.314C314.322 253.624 317.09 252.934 319.944 252.244L319.771 252.503C319.771 250.778 319.684 248.967 319.684 247.242V247.07L319.857 246.984C321.501 246.121 323.058 245 324.355 243.707L324.442 243.62L324.615 243.707C326.258 244.31 327.988 244.828 329.631 245.345L329.372 245.431C330.929 242.931 332.399 240.43 333.869 238.015V238.36C332.572 237.153 331.361 235.945 330.064 234.738L329.977 234.652V234.479C330.496 232.668 330.842 230.771 330.842 228.96V228.788L330.929 228.701C332.572 227.925 334.129 227.149 335.599 226.373L335.513 226.632C334.821 223.7 334.129 220.854 333.437 218.18L333.61 218.353C331.794 218.353 330.064 218.439 328.334 218.439H328.247L328.161 218.353C327.209 216.628 326.085 215.076 324.874 213.869L324.788 213.782V213.696C325.393 211.885 325.912 210.247 326.431 208.694L326.517 208.867C323.663 207.142 321.241 205.59 319.079 204.382H319.252C317.781 205.848 316.571 207.142 315.619 208.091H315.533C313.716 207.573 312.332 207.401 311.381 207.228C310.948 207.228 310.602 207.142 310.343 207.142C310.083 206.97 309.91 206.97 309.91 206.97C309.91 206.97 309.997 206.97 310.256 206.97C310.516 206.97 310.862 206.97 311.294 206.97C312.246 207.056 313.63 207.228 315.533 207.746H315.446C316.398 206.711 317.608 205.504 319.079 203.951L319.165 203.865L319.252 203.951C321.328 205.245 323.836 206.711 326.69 208.436L326.777 208.522V208.608C326.258 210.16 325.739 211.799 325.134 213.61V213.437C326.344 214.731 327.555 216.197 328.507 218.008L328.334 217.922C329.977 217.922 331.707 217.835 333.61 217.835H333.783V218.008C334.475 220.681 335.167 223.441 335.859 226.373V226.545L335.686 226.632C334.129 227.408 332.572 228.184 331.015 228.96L331.102 228.788C331.102 230.685 330.756 232.582 330.237 234.393L330.15 234.134C331.361 235.342 332.659 236.549 333.956 237.756L334.129 237.929L334.042 238.101C332.572 240.516 331.102 243.017 329.545 245.518L329.458 245.69L329.285 245.604C327.642 245.086 325.998 244.483 324.269 243.965L324.528 243.879C323.144 245.173 321.587 246.294 319.944 247.242L320.117 246.984C320.117 248.708 320.203 250.433 320.203 252.244V252.417L320.03 252.503C317.263 253.193 314.408 253.883 311.554 254.573L311.381 254.659L311.294 254.486C310.516 252.934 309.737 251.382 308.959 249.83L309.219 250.002C307.229 250.002 305.326 249.657 303.596 249.14L303.856 249.053C302.645 250.347 301.348 251.641 300.223 252.848L300.05 253.02L299.877 252.934C297.282 251.382 294.774 249.83 292.439 248.45L292.266 248.363L292.352 248.191C292.958 246.466 293.476 244.742 293.995 243.189L294.082 243.448C292.698 241.982 291.574 240.43 290.709 238.877L290.968 239.05C289.152 239.05 287.335 239.136 285.692 239.136H285.519L285.432 238.964C284.741 236.032 284.049 233.186 283.357 230.512L283.27 230.34L283.443 230.254C285.087 229.478 286.643 228.615 288.114 227.925L288.027 228.098C288.027 226.114 288.373 224.131 288.892 222.492L288.979 222.751C287.681 221.457 286.384 220.25 285.173 219.129L285.087 219.043L285.173 218.87C286.73 216.283 288.287 213.782 289.671 211.454L289.757 211.281L289.93 211.368C291.66 211.971 293.39 212.489 294.947 213.006H294.774C296.244 211.626 297.801 210.505 299.358 209.643L299.272 209.815C299.272 207.918 299.185 206.193 299.185 204.555V204.469H299.272C302.731 203.606 305.586 203.003 307.748 202.485H307.835V202.571C308.613 204.124 309.132 205.245 309.564 206.107C309.737 206.452 309.91 206.797 309.997 207.056C309.91 206.883 309.91 206.97 309.91 206.97Z" fill="#EBEBEB"/>
<path d="M184.947 301.394V328.041H223.956H266.943V301.394H184.947Z" fill="#F5F5F5"/>
<path d="M181.487 293.978V301.394H269.884V293.978H223.956H181.487Z" fill="#455A64"/>
<path d="M225.686 328.041H266.943V301.394H269.884V293.978H223.956V300.704L225.686 328.041Z" fill="#455A64"/>
<path d="M213.057 305.706H196.45V309.673H213.057V305.706Z" fill="#E0E0E0"/>
<path d="M215.652 314.674H194.288V323.126H215.652V314.674Z" fill="white"/>
<path d="M197.575 267.416V293.978H236.584H279.572V267.416H197.575Z" fill="#F5F5F5"/>
<path d="M194.115 260V267.416H282.426V260H236.584H194.115Z" fill="#E8505B"/>
<path d="M238.314 293.978H279.572V267.416H282.426V260H236.584V266.727L238.314 293.978Z" fill="#E8505B"/>
<path d="M225.599 271.728H208.992V275.695H225.599V271.728Z" fill="#E0E0E0"/>
<path d="M228.28 280.697H206.916V289.148H228.28V280.697Z" fill="white"/>
<path d="M411 328.041C411 328.127 321.651 328.3 211.543 328.3C101.349 328.214 12 328.127 12 328.041C12 327.955 101.349 327.783 211.543 327.783C321.651 327.783 411 327.869 411 328.041Z" fill="#263238"/>
<path fill-rule="evenodd" clip-rule="evenodd" d="M173.941 92.6189C178.093 90.118 182.504 88.307 187.002 87.0134L189.769 74.1641L211.566 73.8191L214.68 86.5823C219.264 87.7033 223.675 89.4281 227.914 91.8427L238.985 84.685L254.64 99.8628L247.807 111.074C250.316 115.213 252.132 119.611 253.429 124.095L266.317 126.855L266.663 148.587L253.862 151.691C252.737 156.262 251.008 160.66 248.586 164.886L255.765 175.924L240.542 191.533L229.297 184.72C225.146 187.221 220.734 189.032 216.237 190.326L213.469 203.175L191.672 203.52L188.558 190.757C183.974 189.636 179.563 187.911 175.325 185.496L164.253 192.654L148.598 177.476L155.431 166.266C152.923 162.126 151.106 157.728 149.809 153.244L136.921 150.484L136.575 128.752L149.376 125.648C150.501 121.077 152.231 116.679 154.653 112.453L147.473 101.415L162.697 85.8061L173.941 92.6189Z" fill="#E8505B"/>
<path d="M194.181 161.178C194.181 161.178 194.267 161.178 194.44 161.178C194.613 161.178 194.873 161.178 195.218 161.178C195.91 161.178 196.862 161.178 198.073 161.178C200.581 161.178 204.214 161.178 208.798 161.091L208.625 161.264C208.539 159.453 208.539 157.383 208.452 155.141V155.055L208.539 154.968C211.566 153.589 214.766 151.519 217.707 148.759C219.178 147.38 220.475 145.741 221.513 143.844C222.637 142.033 223.329 139.877 223.589 137.635C224.108 133.15 223.07 128.149 220.302 124.009C217.534 119.87 213.382 116.42 208.366 114.523C204.646 113.143 200.668 112.971 196.948 113.747C193.229 114.437 189.769 116.075 187.001 118.318C184.234 120.56 182.244 123.492 181.033 126.596C180.774 127.373 180.428 128.149 180.255 128.925C180.082 129.701 179.909 130.477 179.649 131.253C179.39 132.805 179.217 134.358 179.217 135.824C179.217 137.29 179.476 138.756 179.736 140.136C180.082 141.515 180.601 142.809 181.12 144.016C182.244 146.431 183.801 148.414 185.445 149.967C188.645 153.157 191.932 154.968 194.354 156.09H194.44V156.176C194.354 157.814 194.267 159.108 194.181 159.97C194.181 160.401 194.094 160.746 194.094 160.919C194.181 161.091 194.181 161.178 194.181 161.178C194.181 161.178 194.181 161.091 194.181 160.833C194.181 160.574 194.181 160.315 194.181 159.884C194.181 159.022 194.267 157.728 194.354 156.003L194.44 156.09C192.018 155.055 188.645 153.244 185.358 150.053C183.715 148.414 182.158 146.431 180.947 144.016C180.341 142.809 179.822 141.515 179.476 140.136C179.13 138.756 178.957 137.29 178.871 135.738C178.871 134.185 178.957 132.633 179.303 131.081C179.476 130.305 179.649 129.528 179.909 128.666C180.082 127.89 180.428 127.114 180.687 126.338C181.898 123.233 183.974 120.215 186.828 117.886C189.683 115.558 193.143 113.92 196.948 113.23C200.754 112.453 204.819 112.626 208.625 114.006C213.728 115.903 217.967 119.439 220.734 123.664C222.118 125.82 223.156 128.149 223.675 130.477C223.848 131.081 223.935 131.684 224.021 132.288C224.108 132.892 224.194 133.495 224.194 134.099C224.194 134.703 224.281 135.306 224.281 135.91C224.194 136.514 224.194 137.117 224.108 137.635C223.762 139.963 223.07 142.119 221.945 144.016C220.821 145.914 219.524 147.552 218.053 149.018C215.112 151.864 211.912 153.847 208.798 155.313L208.885 155.141C208.885 157.383 208.971 159.367 208.971 161.264V161.436H208.798C204.214 161.436 200.581 161.35 197.986 161.35C196.775 161.35 195.824 161.35 195.132 161.35C194.786 161.35 194.613 161.35 194.44 161.35C194.267 161.264 194.181 161.178 194.181 161.178Z" fill="white"/>
<path d="M208.885 165.231C208.885 165.317 205.511 165.489 201.36 165.489C197.208 165.489 193.835 165.403 193.835 165.231C193.835 165.144 197.208 164.972 201.36 164.972C205.598 165.058 208.885 165.144 208.885 165.231Z" fill="white"/>
<path d="M204.041 170.922C204.041 171.009 202.83 171.267 201.36 171.267C199.889 171.181 198.678 170.922 198.765 170.75C198.765 170.664 199.976 170.75 201.446 170.75C202.917 170.836 204.041 170.75 204.041 170.922Z" fill="white"/>
<path d="M197.208 161.178C197.208 161.178 197.208 161.091 197.208 160.919C197.208 160.746 197.208 160.488 197.208 160.229C197.208 159.539 197.208 158.59 197.208 157.469C197.294 155.055 197.381 151.519 197.467 147.293C197.554 145.137 197.554 142.809 197.64 140.222C197.64 139.618 197.64 138.928 197.381 138.411C197.208 137.807 196.602 137.376 196.083 137.549C195.478 137.635 195.132 138.238 194.959 138.842C194.786 139.446 194.873 140.136 195.219 140.739C195.824 141.947 197.121 142.809 198.592 142.981C199.976 143.154 201.533 142.55 202.484 141.429C203.522 140.308 204.041 138.842 204.127 137.29C204.127 136.514 204.041 135.738 203.695 135.048C203.349 134.444 202.484 134.013 201.879 134.272C201.187 134.53 200.927 135.393 201.014 136.082C201.1 136.859 201.533 137.462 202.052 138.066C203.003 139.273 204.214 140.308 205.684 140.826C206.376 141.084 207.155 141.171 207.847 141.084C208.539 140.998 209.231 140.653 209.836 140.222C210.442 139.791 210.874 139.187 211.047 138.583C211.307 137.98 211.22 137.204 210.961 136.686C210.701 136.082 210.096 135.651 209.49 135.651C208.885 135.651 208.279 136.082 207.933 136.6C207.241 137.635 207.241 139.015 206.982 140.308C206.722 142.809 206.549 145.137 206.376 147.293C206.117 151.605 205.857 155.055 205.684 157.469C205.598 158.677 205.511 159.539 205.511 160.229C205.511 160.488 205.511 160.746 205.425 160.919C205.425 161.091 205.425 161.178 205.425 161.178C205.425 161.178 205.425 161.091 205.425 160.919C205.425 160.746 205.425 160.488 205.425 160.229C205.425 159.539 205.511 158.677 205.511 157.469C205.598 155.055 205.771 151.605 206.03 147.293C206.203 145.137 206.376 142.809 206.636 140.222C206.722 139.618 206.809 138.928 206.895 138.325C206.982 137.635 207.155 136.945 207.587 136.427C208.02 135.824 208.625 135.393 209.49 135.306C210.269 135.306 211.047 135.824 211.307 136.514C211.653 137.204 211.739 138.066 211.48 138.756C211.22 139.532 210.701 140.136 210.096 140.567C209.49 140.998 208.712 141.343 207.933 141.515C207.155 141.602 206.29 141.515 205.598 141.257C204.041 140.739 202.83 139.618 201.792 138.325C201.273 137.721 200.754 136.945 200.668 136.082C200.581 135.22 200.927 134.185 201.792 133.84C202.744 133.495 203.695 134.013 204.127 134.789C204.56 135.565 204.646 136.427 204.646 137.29C204.56 138.928 203.954 140.567 202.917 141.774C201.879 142.981 200.235 143.671 198.678 143.499C197.121 143.326 195.651 142.378 195.046 140.998C194.7 140.308 194.527 139.532 194.786 138.842C194.959 138.152 195.478 137.462 196.256 137.29C196.689 137.204 197.035 137.29 197.381 137.549C197.727 137.807 197.9 138.066 197.986 138.411C198.246 139.101 198.246 139.704 198.246 140.394C198.159 142.895 198.073 145.31 197.986 147.466C197.813 151.778 197.727 155.227 197.64 157.642C197.554 158.849 197.554 159.712 197.554 160.401C197.554 160.66 197.554 160.919 197.467 161.091C197.208 161.091 197.208 161.178 197.208 161.178Z" fill="white"/>
<path d="M207.587 168.077C207.587 168.163 204.906 168.335 201.533 168.335C198.159 168.335 195.478 168.249 195.478 168.077C195.478 167.99 198.159 167.818 201.533 167.818C204.906 167.818 207.587 167.99 207.587 168.077Z" fill="white"/>
<path fill-rule="evenodd" clip-rule="evenodd" d="M317.09 127.286C319.771 125.648 322.539 124.354 325.479 123.492L327.123 115.127L341.222 114.696L343.384 122.974C346.325 123.664 349.266 124.785 352.033 126.251L359.126 121.508L369.419 131.167L365.094 138.497C366.737 141.17 368.035 143.93 368.9 146.862L377.29 148.501L377.722 162.557L369.419 164.713C368.727 167.645 367.602 170.577 366.132 173.337L370.889 180.408L361.202 190.671L353.85 186.359C351.168 187.997 348.401 189.291 345.46 190.153L343.816 198.518L329.718 198.949L327.555 190.671C324.615 189.981 321.674 188.86 318.906 187.394L311.813 192.137L301.52 182.478L305.845 175.148C304.202 172.475 302.904 169.715 302.039 166.783L293.649 165.144L293.217 151.088L301.52 148.932C302.212 146 303.337 143.068 304.807 140.308L300.05 133.237L309.737 122.974L317.09 127.286Z" fill="#455A64"/>
<path d="M354.455 172.043C354.455 172.043 354.196 172.043 353.763 172.13C353.244 172.13 352.639 172.13 351.774 172.13C350.044 172.13 347.536 172.13 344.508 172.216C338.367 172.216 329.977 172.216 320.636 172.302C320.03 172.302 319.511 172.302 318.906 172.302H318.646V172.043C318.646 163.161 318.733 155.227 318.733 149.363C318.733 146.517 318.819 144.189 318.819 142.55C318.819 141.774 318.819 141.17 318.819 140.739C318.819 140.308 318.819 140.136 318.906 140.136C318.906 140.136 318.906 140.394 318.992 140.739C318.992 141.17 318.992 141.774 318.992 142.55C318.992 144.189 318.992 146.517 319.079 149.363C319.079 155.141 319.079 163.161 319.165 172.043L318.906 171.785C319.425 171.785 320.03 171.785 320.636 171.785C329.977 171.785 338.367 171.871 344.508 171.871C347.536 171.871 349.958 171.957 351.774 171.957C352.552 171.957 353.244 171.957 353.763 171.957C354.196 171.957 354.455 172.043 354.455 172.043Z" fill="white"/>
<path d="M350.477 147.811C350.477 147.811 350.131 148.156 349.439 148.846C348.66 149.536 347.622 150.398 346.411 151.433C343.903 153.589 340.357 156.607 336.464 159.97L335.859 160.488L335.686 160.574L335.513 160.401C333.956 158.935 332.486 157.556 331.102 156.262H331.361C328.766 158.418 326.517 160.229 324.874 161.609C324.096 162.212 323.49 162.73 322.971 163.161C322.539 163.506 322.279 163.678 322.279 163.678C322.279 163.678 322.452 163.42 322.885 163.075C323.317 162.644 323.923 162.126 324.701 161.436C326.344 160.056 328.507 158.159 331.102 155.917L331.275 155.831L331.448 155.917C332.832 157.211 334.302 158.59 335.945 159.97H335.686L336.291 159.453C340.184 156.176 343.73 153.157 346.325 151.002C347.622 149.967 348.66 149.104 349.439 148.501C350.044 148.069 350.477 147.811 350.477 147.811Z" fill="white"/>
<path d="M350.477 155.227C350.39 155.227 350.39 154.365 350.304 152.985C350.304 151.605 350.217 149.708 350.217 147.638L350.477 147.897C350.39 147.897 350.217 147.897 350.131 147.897C347.968 147.897 345.892 147.897 344.508 147.811C343.038 147.811 342.173 147.725 342.173 147.638C342.173 147.552 343.038 147.552 344.508 147.466C345.979 147.466 347.968 147.38 350.131 147.38C350.304 147.38 350.39 147.38 350.477 147.38H350.736V147.638C350.736 149.708 350.736 151.605 350.65 152.985C350.563 154.365 350.563 155.227 350.477 155.227Z" fill="white"/>
<path d="M121.698 173.251C121.612 173.251 121.093 172.216 120.66 170.836C120.228 169.456 119.968 168.335 120.055 168.335C120.141 168.335 120.66 169.37 121.093 170.75C121.525 172.043 121.785 173.251 121.698 173.251Z" fill="#263238"/>
<path d="M130.866 191.706C130.78 191.792 129.396 189.895 127.926 187.394C126.455 184.893 125.59 182.823 125.677 182.737C125.763 182.651 126.888 184.72 128.272 187.135C129.742 189.636 130.953 191.619 130.866 191.706Z" fill="#263238"/>
<path d="M144.36 207.314C144.273 207.401 142.457 205.935 140.467 203.951C138.478 201.882 137.008 200.071 137.094 199.984C137.181 199.898 138.737 201.623 140.727 203.606C142.803 205.59 144.446 207.228 144.36 207.314Z" fill="#263238"/>
<path d="M161.486 218.87C161.399 218.957 159.323 218.094 156.815 216.628C154.307 215.162 152.49 213.782 152.577 213.696C152.663 213.61 154.566 214.817 157.074 216.283C159.496 217.663 161.486 218.698 161.486 218.87Z" fill="#263238"/>
<path d="M181.12 225.166C181.12 225.252 178.785 224.907 176.017 224.39C173.249 223.613 171.087 222.923 171.087 222.751C171.087 222.665 173.422 223.182 176.103 223.958C178.871 224.476 181.12 224.993 181.12 225.166Z" fill="#263238"/>
<path d="M201.706 225.597C201.706 225.683 199.457 226.114 196.516 226.2C193.662 226.373 191.326 226.201 191.326 226.028C191.326 225.942 193.662 225.856 196.516 225.769C199.457 225.683 201.706 225.511 201.706 225.597Z" fill="#263238"/>
<path d="M221.945 221.113C221.945 221.199 219.783 222.061 217.102 222.837C214.334 223.613 212.085 223.958 211.999 223.872C211.999 223.786 214.247 223.182 216.929 222.406C219.697 221.716 221.859 221.026 221.945 221.113Z" fill="#263238"/>
<path d="M240.628 212.403C240.715 212.489 238.812 213.782 236.217 215.162C233.709 216.542 231.546 217.404 231.46 217.318C231.373 217.232 233.449 216.197 235.958 214.817C238.552 213.437 240.542 212.316 240.628 212.403Z" fill="#263238"/>
<path d="M256.716 199.467C256.803 199.553 255.332 201.364 253.17 203.261C251.094 205.245 249.191 206.538 249.105 206.452C249.018 206.366 250.748 204.814 252.91 202.916C254.986 201.019 256.63 199.381 256.716 199.467Z" fill="#263238"/>
<path d="M268.134 182.306C268.22 182.392 267.355 184.548 265.971 187.049C264.587 189.55 263.203 191.447 263.117 191.361C263.03 191.274 264.241 189.291 265.625 186.79C267.009 184.375 267.961 182.306 268.134 182.306Z" fill="#263238"/>
<path d="M275.226 162.989C275.313 162.989 274.707 165.231 273.842 167.99C272.977 170.664 272.112 172.906 272.026 172.82C271.939 172.82 272.545 170.577 273.41 167.818C274.275 165.058 275.053 162.902 275.226 162.989Z" fill="#263238"/>
<path d="M281.8 143.413C281.973 143.499 281.108 145.655 280.243 148.328C279.291 151.002 278.426 153.157 278.34 153.157C278.253 153.157 278.859 150.915 279.81 148.242C280.243 146.862 280.762 145.655 281.108 144.879C281.54 143.93 281.8 143.413 281.8 143.413Z" fill="#263238"/>
<path d="M290.968 124.958C291.055 125.044 289.93 127.028 288.546 129.528C287.162 132.029 286.038 134.099 285.951 134.013C285.865 133.927 286.73 131.857 288.114 129.356C289.584 126.769 290.882 124.872 290.968 124.958Z" fill="#263238"/>
<path d="M304.807 109.694C304.894 109.78 303.077 111.246 301.002 113.143C298.926 115.041 297.369 116.765 297.196 116.679C297.109 116.593 298.58 114.782 300.656 112.798C302.818 110.901 304.721 109.608 304.807 109.694Z" fill="#263238"/>
<path d="M323.49 100.984C323.49 101.07 321.328 101.76 318.646 102.709C315.965 103.657 313.803 104.52 313.803 104.433C313.716 104.347 315.792 103.226 318.56 102.277C321.155 101.329 323.404 100.898 323.49 100.984Z" fill="#263238"/>
<path d="M343.989 98.6555C343.989 98.7417 341.654 98.7417 338.8 98.828C335.945 98.9142 333.61 99.0867 333.61 99.0004C333.61 98.9142 335.859 98.483 338.8 98.3968C341.654 98.3105 343.989 98.5693 343.989 98.6555Z" fill="#263238"/>
<path d="M363.97 103.743C363.883 103.83 361.807 102.967 359.039 102.019C356.358 101.07 354.109 100.38 354.196 100.294C354.196 100.208 356.531 100.639 359.212 101.674C361.894 102.622 363.97 103.657 363.97 103.743Z" fill="#263238"/>
<path d="M381.528 114.523C381.442 114.609 379.625 113.23 377.29 111.591C374.955 109.953 373.052 108.659 373.138 108.573C373.225 108.487 375.214 109.608 377.636 111.246C379.885 112.798 381.615 114.437 381.528 114.523Z" fill="#263238"/>
<path d="M391.907 125.993C391.821 126.079 391.129 125.13 390.264 124.009C389.399 122.888 388.794 121.94 388.88 121.853C388.967 121.767 389.832 122.629 390.697 123.751C391.475 124.872 391.994 125.906 391.907 125.993Z" fill="#263238"/>
</g>
<defs>
<clipPath id="clip0_2:855">
<rect width="399" height="391" fill="white"/>
</clipPath>
</defs>
</svg>
